<?xml version="1.0" encoding="UTF-8"?><svg id="Livello_2" xmlns="http://www.w3.org/2000/svg" viewBox="0 0 760.33 214.62"><defs><style>.cls-1{fill:#fff;}.cls-2{fill:#febb02;}</style></defs><g id="Livello_1-2"><g><path class="cls-1" d="M124.42,97.35c-.76-1.86-.74-4.56,.01-6.44,4.3-10.73,5.94-21.69,4.73-33.23C125.99,27.26,100.14,1.98,70.03,.14,36.93-1.89,7.91,18.8,2.12,50.29-.5,64.57,0,113.44,.12,123.11c.56,44.58,38.38,69.54,73.41,64.51,43.12-6.19,67.39-49.87,50.89-90.27ZM45.1,25.62c2.01-4.45,6.14-7.97,11.64-9.74,0,.01,0,.03,0,.04,1.88-.62,4.47-1.28,7.62-1.46,3.14-.18,5.79,.17,7.72,.57,3.26,.51,21.72,3.69,33.75,20.9,13.44,19.24,7.81,40.23,7.01,43-.82-.66-1.61-1.19-2.28-1.84-12.58-12.34-27.67-18.56-45.28-19.14-17.71-.57-27.43-16.31-20.2-32.34ZM28.42,158.75c-8.21-8.53-12.92-17.93-13.22-28.34-.71-24.13-.52-48.3-.1-72.44,.17-10,6.24-21.16,13.73-27.97,0,2.67,.04,4.71,0,6.75-.42,18.64,14.69,34.9,33.4,35.33,16.55,.38,30.47,5.99,41.42,18.64,2.24,2.59,2.65,4.55,.13,7.19-9.92,10.39-21.7,17.04-36.22,18.01-26.99,1.81-39.28,14.84-39.13,42.83Zm77.82-7.03c-12.27,17.91-31.53,20.95-34.66,21.39-2.06,.35-4.71,.62-7.78,.45-2.97-.16-5.49-.68-7.46-1.22-7.11-2.92-11.4-7.92-13.01-14.88-1.95-8.38-.03-16.24,6.93-21.56,3.64-2.78,8.58-5.14,13.03-5.31,18.64-.72,34.81-6.48,47.77-20.25,.43-.45,1.05-.72,1.93-1.3,.8,2.77,6.43,23.45-6.75,42.68Z"/><circle class="cls-2" cx="62.07" cy="154" r="9.96"/><circle class="cls-2" cx="62.07" cy="32.73" r="9.96"/><g><path class="cls-1" d="M240.41,147.32c0,13.39-3.78,23.83-11.33,31.33-7.55,7.5-17.6,11.25-30.16,11.25s-22.58-3.75-30.08-11.25-11.25-17.94-11.25-31.33v-31.72c0-13.33,3.74-23.79,11.21-31.37,7.47-7.58,17.49-11.37,30.04-11.37s22.62,3.79,30.2,11.37,11.37,18.03,11.37,31.37v31.72Zm-21.95-31.95c0-8.28-1.68-14.53-5.04-18.75s-8.22-6.33-14.57-6.33-11.22,2.1-14.45,6.29c-3.23,4.19-4.84,10.46-4.84,18.79v31.95c0,8.44,1.63,14.77,4.88,18.98,3.25,4.22,8.09,6.33,14.49,6.33s11.26-2.11,14.57-6.33c3.31-4.22,4.96-10.55,4.96-18.98v-31.95Z"/><path class="cls-1" d="M336.5,147.32c0,13.39-3.78,23.83-11.33,31.33-7.55,7.5-17.6,11.25-30.16,11.25s-22.58-3.75-30.08-11.25-11.25-17.94-11.25-31.33v-31.72c0-13.33,3.74-23.79,11.21-31.37,7.47-7.58,17.49-11.37,30.04-11.37s22.62,3.79,30.2,11.37,11.37,18.03,11.37,31.37v31.72Zm-21.95-31.95c0-8.28-1.68-14.53-5.04-18.75s-8.22-6.33-14.57-6.33-11.22,2.1-14.45,6.29c-3.23,4.19-4.84,10.46-4.84,18.79v31.95c0,8.44,1.63,14.77,4.88,18.98,3.25,4.22,8.09,6.33,14.49,6.33s11.26-2.11,14.57-6.33c3.31-4.22,4.96-10.55,4.96-18.98v-31.95Z"/><path class="cls-1" d="M379.94,140.52h-6.02v47.73h-22.03V74.51h22.03v46.56h4.53l24.14-46.56h27.34l-32.81,51.95,35.23,61.8h-28.12l-24.3-47.73Z"/><path class="cls-1" d="M494.55,214.62h-16.95V46.07h16.95V214.62Z"/><path class="cls-1" d="M584.08,123.96h.47l19.61-49.45h24.06l-33.2,73.2v40.55h-21.95v-41.95l-32.58-71.8h24.06l19.53,49.45Z"/><path class="cls-1" d="M660.88,188.26h-21.95V74.51h21.95v113.75Z"/><path class="cls-1" d="M760.33,188.26h-22.03l-36.09-72.58-.47,.08v72.5h-22.03V74.51h22.03l36.09,72.66,.47-.08V74.51h22.03v113.75Z"/></g></g></g></svg>