<?xml version="1.0" encoding="utf-8"?>
<!-- Generator: Adobe Illustrator 27.0.0, SVG Export Plug-In . SVG Version: 6.00 Build 0)  -->
<svg version="1.1" id="Livello_2_00000129205202163055545140000001918681191780153243_"
	 xmlns="http://www.w3.org/2000/svg" xmlns:xlink="http://www.w3.org/1999/xlink" x="0px" y="0px" viewBox="0 0 300 450"
	 style="enable-background:new 0 0 300 450;" xml:space="preserve">
<g id="Livello_1-2">
	<g>
		<path d="M151,0v15c25.1,0,50,8,74.1,23.8c33.1,21.7,52.8,53.2,58.5,93.7c4.1,29.1-1.2,57.3-15.8,83.7
			c-43.8,79.3-82.4,148.9-117.8,212.6C114.7,365.2,78.9,300.6,44.3,238l-11.8-21.4c-14.2-25.7-19.8-52.4-16.6-79.3
			c3-24.8,10.7-46.4,23-64.2c12.5-18,30-32.6,52-43.4C111,20,131.2,15,151,15L151,0 M150.3,240.3c48.6,0,88.8-39.8,89.6-88.8
			c0.8-49.2-39.1-90-89.1-91c-0.6,0-1.1,0-1.7,0c-48,0-87.9,39.7-88.9,88.6c-0.5,23.7,8.4,46.2,25,63.4
			c16.8,17.5,39.4,27.3,63.5,27.7C149.2,240.3,149.8,240.3,150.3,240.3 M151,0c-22,0-44.3,5.4-66.6,16.3C35,40.4,7.5,81.3,1,135.6
			c-3.7,31.2,3.1,60.8,18.4,88.3c40.3,72.8,80.5,145.5,120.9,218.2c1.7,3,4.7,5.3,7.1,7.9h0h5.3c2.4-2.6,5.5-4.9,7.1-7.9
			c40.5-72.8,80.8-145.7,121.1-218.6c16.1-29.1,22.2-60.2,17.5-93.1c-6.3-44.3-27.9-79.7-65.2-104.1C206.7,8.8,179.1,0,151,0L151,0z
			 M150.3,225.3c-0.4,0-0.9,0-1.4,0c-41.4-0.7-74.6-34.9-73.7-75.9c0.9-40.9,34.1-73.9,73.9-73.9c0.5,0,0.9,0,1.4,0
			c41.9,0.8,75.1,34.6,74.4,75.7C224.2,192.4,191,225.3,150.3,225.3L150.3,225.3z"/>
	</g>
</g>
</svg>
